<svg version="1" xmlns="http://www.w3.org/2000/svg" width="666.667" height="666.667" viewBox="0 0 500.000000 500.000000"><path d="M1.2 114.3l.3 114.2h141l.3-65.3.2-65.2h36v131l70.8-.2 70.7-.3.3-65.3.2-65.2h36v131h141V.3l-2.7.4C489.3 1.4 431 9 424 10c-4.1.6-17.8 2.4-30.5 4-12.6 1.6-26.4 3.4-30.5 4-4.1.6-17.8 2.4-30.5 4-12.6 1.6-26.4 3.4-30.5 4-45.6 6.2-52.6 6.9-59 6-9.8-1.3-20.2-2.7-45.5-6-12.6-1.6-26.4-3.4-30.5-4-4.1-.6-21.2-2.8-38-5s-39-5.1-49.5-6.5c-28-3.7-47.5-6.2-61-8C11.9 1.7 5.3.8 3.7.5L1 0l.2 114.3zM0 332v69h142V263H0v69zM181 382v118h142l-.2-117.8-.3-117.7-70.7-.3-70.8-.2v118zM358 331.5V399h142V264H358v67.5z"/></svg>