<svg aria-hidden="true" version="1.1" xmlns="http://www.w3.org/2000/svg" xmlns:xlink="http://www.w3.org/1999/xlink">
<defs>
<symbol id="icon-processwire" viewBox="0 0 32 32">
<title>processwire</title>
<path fill="#368fb8" d="M16.017 13.351c1.463 0 2.649 1.186 2.649 2.649s-1.186 2.649-2.649 2.649c-1.463 0-2.649-1.186-2.649-2.649s1.186-2.649 2.649-2.649zM16 0c-8.832 0-15.993 7.157-16 15.988v8.107l4.105 3.646v-11.895c0-6.569 5.326-11.895 11.895-11.895s11.895 5.325 11.895 11.895c0 6.569-5.325 11.895-11.895 11.895h-2.177v-5.834h2.177c3.347 0 6.061-2.713 6.061-6.061s-2.714-6.061-6.061-6.061c-3.347 0-6.061 2.713-6.061 6.061v16.154h6.061c8.837 0 16-7.163 16-16s-7.163-16-16-16z"></path>
</symbol>
<symbol id="icon-laravel" viewBox="0 0 32 32">
<title>laravel</title>
<path fill="#f35045" d="M20.056 26c0.25 0.361 0.403 0.333 0.597 0.25s10.195-3.458 10.5-3.569c0.305-0.111 0.208-0.208 0.111-0.361s-3.431-4.681-3.597-4.944c-0.167-0.264-0.25-0.208-0.514-0.125l-10.601 2.758c0 0 3.253 5.631 3.503 5.992v0z"></path>
<path fill="#f35045" d="M32 21.389v-5.3c-1.193 0.318-2.701 0.72-3.297 0.878 0.898 1.202 2.303 3.083 3.297 4.422v0z"></path>
<path fill="#f35045" d="M28.693 10.44c-0.163 0.037-3.781 0.691-4.004 0.72s-0.149 0.156-0.059 0.282l3.183 4.368c0 0 3.892-0.966 4.13-1.018 0.019-0.004 0.038-0.009 0.057-0.013v-0.578c-0.707-0.897-2.635-3.34-2.802-3.568-0.201-0.275-0.342-0.23-0.505-0.193v0z"></path>
<path fill="#f35045" d="M5.932 3.579c0.783-0.036 0.855 0.143 1.199 0.653l8.646 14.455 10.872-2.604c-0.602-0.854-3.337-4.731-3.601-5.101-0.297-0.416 0.007-0.609 0.49-0.691s4.642-0.78 4.999-0.832c0.357-0.052 0.639-0.178 1.218 0.52 0.296 0.357 1.302 1.609 2.245 2.782v-6.761c0-1.653-0.587-3.066-1.76-4.24s-2.587-1.76-4.24-1.76h-20c-1.653 0-3.066 0.587-4.24 1.76-0.673 0.673-1.152 1.425-1.439 2.256 1.96-0.161 5.063-0.413 5.611-0.438v0z"></path>
<path fill="#f35045" d="M21.036 27.945c-0.917 0.278-1.328 0.416-1.925-0.418-0.447-0.624-2.866-4.98-4.052-7.128-2.244 0.588-6.352 1.66-7.536 1.944-1.156 0.278-1.65-0.415-1.84-0.843-0.133-0.3-3.522-7.607-5.684-12.295v16.794c0 1.653 0.587 3.066 1.76 4.24s2.587 1.76 4.24 1.76h20c1.653 0 3.066-0.587 4.24-1.76s1.76-2.587 1.76-4.24v-1.973c-2.455 0.898-10.346 3.731-10.964 3.918v0z"></path>
<path fill="#f35045" d="M7.551 20.661c0.325-0.074 6.414-1.532 6.544-1.559s0.213-0.102 0.074-0.343c-0.139-0.241-8.117-14.011-8.117-14.011-0.074-0.126-0.053-0.168-0.253-0.158-0.178 0.009-4.692 0.412-5.737 0.5-0.031 0.217-0.049 0.44-0.058 0.666 1.061 2.172 7.15 14.73 7.184 14.832 0.037 0.111 0.037 0.149 0.362 0.074v0z"></path>
</symbol>
<symbol id="icon-mlogo" viewBox="0 0 30 32">
<title>logo</title>
<path fill="#0092d0" d="M-0 16.794h8.408v8.871h-8.408v-8.871z"></path>
<path fill="#2d73ac" d="M10.699 16.898h8.408v15.099h-8.408v-15.099z"></path>
<path fill="#08608e" d="M21.192 16.861h8.408v8.693h-8.408v-8.693z"></path>
<path fill="#666" d="M0.047-0.002l14.734 2.091 14.734-2.091v14.634h-8.419v-8.362h-2.105v8.362h-8.419v-8.362h-2.105v8.362h-8.419z"></path>
</symbol>
<symbol id="icon-vuejs" viewBox="3 -8 32 32">
<title>Vue JS</title>
<path fill="#4dba87" d="M18.993 6.932l-2.418 4.188-2.418-4.188h-8.052l10.47 18.135 10.47-18.135z"></path>
<path fill="#435466" d="M18.993 6.932l-2.418 4.188-2.418-4.188h-3.864l6.282 10.881 6.282-10.881z"></path>
</symbol>
<symbol id="icon-react" viewBox="0 0 32 32">
<title>React JS</title>
<path fill="#00d8ff" d="M18.651 15.979c0 1.479-1.199 2.677-2.677 2.677s-2.677-1.199-2.677-2.677c0-1.479 1.199-2.677 2.677-2.677s2.677 1.199 2.677 2.677z"></path>
<path fill="#00d8ff" d="M15.973 22.112c-3.76 0-7.045-0.443-9.504-1.285-1.595-0.544-2.949-1.269-3.915-2.096-1.024-0.875-1.568-1.829-1.568-2.752 0-1.771 1.941-3.504 5.2-4.635 2.667-0.928 6.144-1.445 9.781-1.445 3.573 0 7.003 0.501 9.653 1.419 1.552 0.533 2.859 1.227 3.787 1.995 1.008 0.843 1.541 1.765 1.541 2.667 0 1.84-2.171 3.701-5.669 4.859-2.475 0.821-5.781 1.275-9.307 1.275zM15.973 11.179c-3.451 0-6.864 0.501-9.36 1.371-2.997 1.045-4.341 2.475-4.341 3.429 0 0.992 1.445 2.555 4.613 3.637 2.325 0.795 5.472 1.216 9.088 1.216 3.392 0 6.555-0.427 8.907-1.211 3.291-1.093 4.795-2.656 4.795-3.643 0-0.507-0.384-1.104-1.083-1.685-0.805-0.672-1.979-1.285-3.381-1.771-2.523-0.864-5.803-1.344-9.237-1.344z"></path>
<path fill="#00d8ff" d="M9.899 29.323c-0.544 0-1.024-0.117-1.429-0.352-1.531-0.885-2.064-3.435-1.419-6.821 0.528-2.779 1.819-6.043 3.637-9.195 1.787-3.093 3.931-5.813 6.048-7.653 1.237-1.077 2.491-1.867 3.621-2.283 1.232-0.453 2.299-0.453 3.077-0.005 1.595 0.917 2.123 3.733 1.376 7.339-0.528 2.56-1.787 5.648-3.547 8.704-1.877 3.253-3.904 5.877-5.861 7.589-1.269 1.109-2.576 1.92-3.771 2.341-0.624 0.224-1.211 0.336-1.733 0.336zM11.237 13.275l0.555 0.32c-1.723 2.987-2.997 6.192-3.488 8.795-0.592 3.12-0.021 4.997 0.8 5.472 0.203 0.117 0.469 0.181 0.795 0.181 1.061 0 2.731-0.672 4.661-2.357 1.851-1.616 3.787-4.133 5.595-7.264 1.696-2.939 2.901-5.893 3.403-8.32 0.699-3.397 0.096-5.477-0.763-5.973-0.437-0.251-1.147-0.219-2 0.096-0.987 0.363-2.101 1.072-3.221 2.048-2.011 1.749-4.064 4.352-5.781 7.328l-0.555-0.325z"></path>
<path fill="#00d8ff" d="M22.048 29.339c-1.451 0-3.291-0.875-5.211-2.528-2.144-1.845-4.325-4.592-6.149-7.744v0c-1.792-3.093-3.072-6.309-3.611-9.067-0.315-1.611-0.373-3.088-0.171-4.277 0.224-1.296 0.752-2.219 1.536-2.672 1.589-0.923 4.293 0.027 7.045 2.475 1.952 1.733 4 4.368 5.765 7.419 1.883 3.253 3.147 6.32 3.648 8.869 0.325 1.653 0.379 3.189 0.149 4.437-0.245 1.328-0.8 2.272-1.6 2.736-0.4 0.235-0.875 0.352-1.403 0.352zM11.797 18.427c1.728 2.987 3.872 5.691 5.877 7.413 2.405 2.069 4.315 2.517 5.141 2.037 0.859-0.496 1.488-2.528 0.837-5.813-0.48-2.411-1.691-5.344-3.504-8.475-1.701-2.939-3.659-5.461-5.509-7.104-2.592-2.304-4.693-2.821-5.552-2.325-0.437 0.251-0.763 0.885-0.917 1.781-0.176 1.035-0.123 2.357 0.165 3.813 0.512 2.619 1.739 5.696 3.461 8.672v0z"></path>
</symbol>
<symbol id="icon-home" viewBox="0 0 32 32">
<title>home</title>
<path d="M32 18.451l-16-12.42-16 12.42v-5.064l16-12.42 16 12.42zM28 18v12h-8v-8h-8v8h-8v-12l12-9z"></path>
</symbol>
<symbol id="icon-pencil2" viewBox="0 0 32 32">
<title>pencil2</title>
<path d="M12 20l4-2 14-14-2-2-14 14-2 4zM9.041 27.097c-0.989-2.085-2.052-3.149-4.137-4.137l3.097-8.525 4-2.435 12-12h-6l-12 12-6 20 20-6 12-12v-6l-12 12-2.435 4z"></path>
</symbol>
<symbol id="icon-book">
<title>book</title>
<path d="M28 4v26h-21c-1.657 0-3-1.343-3-3s1.343-3 3-3h19v-24h-20c-2.2 0-4 1.8-4 4v24c0 2.2 1.8 4 4 4h24v-28h-2z"></path>
<path d="M7.002 26v0c-0.001 0-0.001 0-0.002 0-0.552 0-1 0.448-1 1s0.448 1 1 1c0.001 0 0.001-0 0.002-0v0h18.997v-2h-18.997z"></path>
</symbol>
<symbol id="icon-phone" viewBox="0 0 32 32">
<title>phone</title>
<path d="M22 20c-2 2-2 4-4 4s-4-2-6-4-4-4-4-6 2-2 4-4-4-8-6-8-6 6-6 6c0 4 4.109 12.109 8 16s12 8 16 8c0 0 6-4 6-6s-6-8-8-6z"></path>
</symbol>
<symbol id="icon-database" viewBox="0 0 32 32">
<title>database</title>
<path d="M16 0c-8.837 0-16 2.239-16 5v4c0 2.761 7.163 5 16 5s16-2.239 16-5v-4c0-2.761-7.163-5-16-5z"></path>
<path d="M16 17c-8.837 0-16-2.239-16-5v6c0 2.761 7.163 5 16 5s16-2.239 16-5v-6c0 2.761-7.163 5-16 5z"></path>
<path d="M16 26c-8.837 0-16-2.239-16-5v6c0 2.761 7.163 5 16 5s16-2.239 16-5v-6c0 2.761-7.163 5-16 5z"></path>
</symbol>
<symbol id="icon-spinner9" viewBox="0 0 32 32">
<title>spinner9</title>
<path d="M16 0c-8.711 0-15.796 6.961-15.995 15.624 0.185-7.558 5.932-13.624 12.995-13.624 7.18 0 13 6.268 13 14 0 1.657 1.343 3 3 3s3-1.343 3-3c0-8.837-7.163-16-16-16zM16 32c8.711 0 15.796-6.961 15.995-15.624-0.185 7.558-5.932 13.624-12.995 13.624-7.18 0-13-6.268-13-14 0-1.657-1.343-3-3-3s-3 1.343-3 3c0 8.837 7.163 16 16 16z"></path>
</symbol>
<symbol id="icon-search">
<title>search</title>
<path d="M31.008 27.231l-7.58-6.447c-0.784-0.705-1.622-1.029-2.299-0.998 1.789-2.096 2.87-4.815 2.87-7.787 0-6.627-5.373-12-12-12s-12 5.373-12 12 5.373 12 12 12c2.972 0 5.691-1.081 7.787-2.87-0.031 0.677 0.293 1.515 0.998 2.299l6.447 7.58c1.104 1.226 2.907 1.33 4.007 0.23s0.997-2.903-0.23-4.007zM12 20c-4.418 0-8-3.582-8-8s3.582-8 8-8 8 3.582 8 8-3.582 8-8 8z"></path>
</symbol>
<symbol id="icon-lock" viewBox="0 0 32 32">
<title>lock</title>
<path d="M18.5 14h-0.5v-6c0-3.308-2.692-6-6-6h-4c-3.308 0-6 2.692-6 6v6h-0.5c-0.825 0-1.5 0.675-1.5 1.5v15c0 0.825 0.675 1.5 1.5 1.5h17c0.825 0 1.5-0.675 1.5-1.5v-15c0-0.825-0.675-1.5-1.5-1.5zM6 8c0-1.103 0.897-2 2-2h4c1.103 0 2 0.897 2 2v6h-8v-6z"></path>
</symbol>
<symbol id="icon-wrench" viewBox="0 0 32 32">
<title>wrench</title>
<path d="M31.342 25.559l-14.392-12.336c0.67-1.259 1.051-2.696 1.051-4.222 0-4.971-4.029-9-9-9-0.909 0-1.787 0.135-2.614 0.386l5.2 5.2c0.778 0.778 0.778 2.051 0 2.828l-3.172 3.172c-0.778 0.778-2.051 0.778-2.828 0l-5.2-5.2c-0.251 0.827-0.386 1.705-0.386 2.614 0 4.971 4.029 9 9 9 1.526 0 2.963-0.38 4.222-1.051l12.336 14.392c0.716 0.835 1.938 0.882 2.716 0.104l3.172-3.172c0.778-0.778 0.731-2-0.104-2.716z"></path>
</symbol>
<symbol id="icon-cogs" >
<title>cogs</title>
<path d="M11.366 22.564l1.291-1.807-1.414-1.414-1.807 1.291c-0.335-0.187-0.694-0.337-1.071-0.444l-0.365-2.19h-2l-0.365 2.19c-0.377 0.107-0.736 0.256-1.071 0.444l-1.807-1.291-1.414 1.414 1.291 1.807c-0.187 0.335-0.337 0.694-0.443 1.071l-2.19 0.365v2l2.19 0.365c0.107 0.377 0.256 0.736 0.444 1.071l-1.291 1.807 1.414 1.414 1.807-1.291c0.335 0.187 0.694 0.337 1.071 0.444l0.365 2.19h2l0.365-2.19c0.377-0.107 0.736-0.256 1.071-0.444l1.807 1.291 1.414-1.414-1.291-1.807c0.187-0.335 0.337-0.694 0.444-1.071l2.19-0.365v-2l-2.19-0.365c-0.107-0.377-0.256-0.736-0.444-1.071zM7 27c-1.105 0-2-0.895-2-2s0.895-2 2-2 2 0.895 2 2-0.895 2-2 2zM32 12v-2l-2.106-0.383c-0.039-0.251-0.088-0.499-0.148-0.743l1.799-1.159-0.765-1.848-2.092 0.452c-0.132-0.216-0.273-0.426-0.422-0.629l1.219-1.761-1.414-1.414-1.761 1.219c-0.203-0.149-0.413-0.29-0.629-0.422l0.452-2.092-1.848-0.765-1.159 1.799c-0.244-0.059-0.492-0.109-0.743-0.148l-0.383-2.106h-2l-0.383 2.106c-0.251 0.039-0.499 0.088-0.743 0.148l-1.159-1.799-1.848 0.765 0.452 2.092c-0.216 0.132-0.426 0.273-0.629 0.422l-1.761-1.219-1.414 1.414 1.219 1.761c-0.149 0.203-0.29 0.413-0.422 0.629l-2.092-0.452-0.765 1.848 1.799 1.159c-0.059 0.244-0.109 0.492-0.148 0.743l-2.106 0.383v2l2.106 0.383c0.039 0.251 0.088 0.499 0.148 0.743l-1.799 1.159 0.765 1.848 2.092-0.452c0.132 0.216 0.273 0.426 0.422 0.629l-1.219 1.761 1.414 1.414 1.761-1.219c0.203 0.149 0.413 0.29 0.629 0.422l-0.452 2.092 1.848 0.765 1.159-1.799c0.244 0.059 0.492 0.109 0.743 0.148l0.383 2.106h2l0.383-2.106c0.251-0.039 0.499-0.088 0.743-0.148l1.159 1.799 1.848-0.765-0.452-2.092c0.216-0.132 0.426-0.273 0.629-0.422l1.761 1.219 1.414-1.414-1.219-1.761c0.149-0.203 0.29-0.413 0.422-0.629l2.092 0.452 0.765-1.848-1.799-1.159c0.059-0.244 0.109-0.492 0.148-0.743l2.106-0.383zM21 15.35c-2.402 0-4.35-1.948-4.35-4.35s1.948-4.35 4.35-4.35 4.35 1.948 4.35 4.35c0 2.402-1.948 4.35-4.35 4.35z"></path>
</symbol>
<symbol id="icon-rocket" viewBox="0 0 32 32">
<title>rocket</title>
<path d="M22 2l-10 10h-6l-6 8c0 0 6.357-1.77 10.065-0.94l-10.065 12.94 13.184-10.255c1.839 4.208-1.184 10.255-1.184 10.255l8-6v-6l10-10 2-10-10 2z"></path>
</symbol>
<symbol id="icon-meter">
<title>meter</title>
<path d="M16 2c8.837 0 16 7.163 16 16 0 6.025-3.331 11.271-8.25 14h-15.499c-4.92-2.729-8.25-7.975-8.25-14 0-8.837 7.163-16 16-16zM25.060 27.060c2.42-2.42 3.753-5.637 3.753-9.060h-2.813v-2h2.657c-0.219-1.406-0.668-2.755-1.33-4h-3.327v-2h2.009c-0.295-0.368-0.611-0.722-0.949-1.060-1.444-1.444-3.173-2.501-5.060-3.119v2.178h-2v-2.658c-0.656-0.102-1.324-0.155-2-0.155s-1.344 0.053-2 0.155v2.658h-2v-2.178c-1.887 0.617-3.615 1.674-5.060 3.119-0.338 0.338-0.654 0.692-0.949 1.060h2.009v2h-3.327c-0.662 1.245-1.111 2.594-1.33 4h2.657v2h-2.813c0 3.422 1.333 6.64 3.753 9.060 0.335 0.335 0.685 0.648 1.049 0.94h6.011l1.143-16h1.714l1.143 16h6.011c0.364-0.292 0.714-0.606 1.049-0.94z"></path>
</symbol>
<symbol id="icon-cloud" viewBox="0 0 32 32">
<title>cloud</title>
<path d="M32 20.548c0-2.565-1.771-4.716-4.156-5.296-0.101-4.022-3.389-7.252-7.433-7.252-2.369 0-4.477 1.109-5.839 2.835-0.764-0.987-1.959-1.624-3.303-1.624-2.307 0-4.176 1.871-4.176 4.179 0 0.201 0.015 0.399 0.043 0.592-0.351-0.063-0.711-0.098-1.080-0.098-3.344-0-6.054 2.712-6.054 6.058s2.71 6.058 6.054 6.058l20.508-0c3.004-0.006 5.438-2.444 5.438-5.451z"></path>
</symbol>
<symbol id="icon-sphere">
<title>sphere</title>
<path d="M15 2c-8.284 0-15 6.716-15 15s6.716 15 15 15c8.284 0 15-6.716 15-15s-6.716-15-15-15zM23.487 22c0.268-1.264 0.437-2.606 0.492-4h3.983c-0.104 1.381-0.426 2.722-0.959 4h-3.516zM6.513 12c-0.268 1.264-0.437 2.606-0.492 4h-3.983c0.104-1.381 0.426-2.722 0.959-4h3.516zM21.439 12c0.3 1.28 0.481 2.62 0.54 4h-5.979v-4h5.439zM16 10v-5.854c0.456 0.133 0.908 0.355 1.351 0.668 0.831 0.586 1.625 1.488 2.298 2.609 0.465 0.775 0.867 1.638 1.203 2.578h-4.852zM10.351 7.422c0.673-1.121 1.467-2.023 2.298-2.609 0.443-0.313 0.895-0.535 1.351-0.668v5.854h-4.852c0.336-0.94 0.738-1.803 1.203-2.578zM14 12v4h-5.979c0.059-1.38 0.24-2.72 0.54-4h5.439zM2.997 22c-0.533-1.278-0.854-2.619-0.959-4h3.983c0.055 1.394 0.224 2.736 0.492 4h-3.516zM8.021 18h5.979v4h-5.439c-0.3-1.28-0.481-2.62-0.54-4zM14 24v5.854c-0.456-0.133-0.908-0.355-1.351-0.668-0.831-0.586-1.625-1.488-2.298-2.609-0.465-0.775-0.867-1.638-1.203-2.578h4.852zM19.649 26.578c-0.673 1.121-1.467 2.023-2.298 2.609-0.443 0.312-0.895 0.535-1.351 0.668v-5.854h4.852c-0.336 0.94-0.738 1.802-1.203 2.578zM16 22v-4h5.979c-0.059 1.38-0.24 2.72-0.54 4h-5.439zM23.98 16c-0.055-1.394-0.224-2.736-0.492-4h3.516c0.533 1.278 0.855 2.619 0.959 4h-3.983zM25.958 10h-2.997c-0.582-1.836-1.387-3.447-2.354-4.732 1.329 0.636 2.533 1.488 3.585 2.54 0.671 0.671 1.261 1.404 1.766 2.192zM5.808 7.808c1.052-1.052 2.256-1.904 3.585-2.54-0.967 1.285-1.771 2.896-2.354 4.732h-2.997c0.504-0.788 1.094-1.521 1.766-2.192zM4.042 24h2.997c0.583 1.836 1.387 3.447 2.354 4.732-1.329-0.636-2.533-1.488-3.585-2.54-0.671-0.671-1.261-1.404-1.766-2.192zM24.192 26.192c-1.052 1.052-2.256 1.904-3.585 2.54 0.967-1.285 1.771-2.896 2.354-4.732h2.997c-0.504 0.788-1.094 1.521-1.766 2.192z"></path>
</symbol>
<symbol id="icon-earth">
<title>earth</title>
<path d="M16 0c-8.837 0-16 7.163-16 16s7.163 16 16 16 16-7.163 16-16-7.163-16-16-16zM16 30c-1.967 0-3.84-0.407-5.538-1.139l7.286-8.197c0.163-0.183 0.253-0.419 0.253-0.664v-3c0-0.552-0.448-1-1-1-3.531 0-7.256-3.671-7.293-3.707-0.188-0.188-0.442-0.293-0.707-0.293h-4c-0.552 0-1 0.448-1 1v6c0 0.379 0.214 0.725 0.553 0.894l3.447 1.724v5.871c-3.627-2.53-6-6.732-6-11.489 0-2.147 0.484-4.181 1.348-6h3.652c0.265 0 0.52-0.105 0.707-0.293l4-4c0.188-0.188 0.293-0.442 0.293-0.707v-2.419c1.268-0.377 2.61-0.581 4-0.581 2.2 0 4.281 0.508 6.134 1.412-0.13 0.109-0.256 0.224-0.376 0.345-1.133 1.133-1.757 2.64-1.757 4.243s0.624 3.109 1.757 4.243c1.139 1.139 2.663 1.758 4.239 1.758 0.099 0 0.198-0.002 0.297-0.007 0.432 1.619 1.211 5.833-0.263 11.635-0.014 0.055-0.022 0.109-0.026 0.163-2.541 2.596-6.084 4.208-10.004 4.208z"></path>
</symbol>
<symbol id="icon-cross" viewBox="0 0 32 32">
<title>cross</title>
<path d="M31.708 25.708c-0-0-0-0-0-0l-9.708-9.708 9.708-9.708c0-0 0-0 0-0 0.105-0.105 0.18-0.227 0.229-0.357 0.133-0.356 0.057-0.771-0.229-1.057l-4.586-4.586c-0.286-0.286-0.702-0.361-1.057-0.229-0.13 0.048-0.252 0.124-0.357 0.228 0 0-0 0-0 0l-9.708 9.708-9.708-9.708c-0-0-0-0-0-0-0.105-0.104-0.227-0.18-0.357-0.228-0.356-0.133-0.771-0.057-1.057 0.229l-4.586 4.586c-0.286 0.286-0.361 0.702-0.229 1.057 0.049 0.13 0.124 0.252 0.229 0.357 0 0 0 0 0 0l9.708 9.708-9.708 9.708c-0 0-0 0-0 0-0.104 0.105-0.18 0.227-0.229 0.357-0.133 0.355-0.057 0.771 0.229 1.057l4.586 4.586c0.286 0.286 0.702 0.361 1.057 0.229 0.13-0.049 0.252-0.124 0.357-0.229 0-0 0-0 0-0l9.708-9.708 9.708 9.708c0 0 0 0 0 0 0.105 0.105 0.227 0.18 0.357 0.229 0.356 0.133 0.771 0.057 1.057-0.229l4.586-4.586c0.286-0.286 0.362-0.702 0.229-1.057-0.049-0.13-0.124-0.252-0.229-0.357z"></path>
</symbol>
<symbol id="icon-checkmark" viewBox="0 0 32 32">
<title>checkmark</title>
<path d="M27 4l-15 15-7-7-5 5 12 12 20-20z"></path>
</symbol>
<symbol id="icon-shuffle" viewBox="0 0 32 32">
<title>shuffle</title>
<path d="M24 22h-3.172l-5-5 5-5h3.172v5l7-7-7-7v5h-4c-0.53 0-1.039 0.211-1.414 0.586l-5.586 5.586-5.586-5.586c-0.375-0.375-0.884-0.586-1.414-0.586h-6v4h5.172l5 5-5 5h-5.172v4h6c0.53 0 1.039-0.211 1.414-0.586l5.586-5.586 5.586 5.586c0.375 0.375 0.884 0.586 1.414 0.586h4v5l7-7-7-7v5z"></path>
</symbol>
<symbol id="icon-text-height">
<title>text-height</title>
<path d="M28 24h4l-5 6-5-6h4v-16h-4l5-6 5 6h-4zM20 2v8l-2-4h-6v22h4v2h-12v-2h4v-22h-6l-2 4v-8z"></path>
</symbol>
<symbol id="icon-mail2" viewBox="0 0 32 32">
<title>mail2</title>
<path d="M26.667 0h-21.333c-2.934 0-5.334 2.4-5.334 5.334v21.332c0 2.936 2.4 5.334 5.334 5.334h21.333c2.934 0 5.333-2.398 5.333-5.334v-21.332c0-2.934-2.399-5.334-5.333-5.334zM26.667 4c0.25 0 0.486 0.073 0.688 0.198l-11.355 9.388-11.355-9.387c0.202-0.125 0.439-0.198 0.689-0.198h21.333zM5.334 28c-0.060 0-0.119-0.005-0.178-0.013l7.051-9.78-0.914-0.914-7.293 7.293v-19.098l12 14.512 12-14.512v19.098l-7.293-7.293-0.914 0.914 7.051 9.78c-0.058 0.008-0.117 0.013-0.177 0.013h-21.333z"></path>
</symbol>
<symbol id="icon-circle-down" viewBox="0 0 32 32">
<title>circle-down</title>
<path d="M32 16c0-8.837-7.163-16-16-16s-16 7.163-16 16 7.163 16 16 16 16-7.163 16-16zM3 16c0-7.18 5.82-13 13-13s13 5.82 13 13-5.82 13-13 13-13-5.82-13-13z"></path>
<path d="M9.914 11.086l-2.829 2.829 8.914 8.914 8.914-8.914-2.828-2.828-6.086 6.086z"></path>
</symbol>
<symbol id="icon-arrow-right" viewBox="0 0 32 32">
<title>arrow-right</title>
<path d="M31 16l-15-15v9h-16v12h16v9z"></path>
</symbol>
<symbol id="icon-arrow-left" viewBox="0 0 32 32">
<title>arrow-left</title>
<path d="M1 16l15 15v-9h16v-12h-16v-9z"></path>
</symbol>
<symbol id="icon-mobile">
<path d="M23 0h-14c-1.65 0-3 1.35-3 3v26c0 1.65 1.35 3 3 3h14c1.65 0 3-1.35 3-3v-26c0-1.65-1.35-3-3-3zM12 1.5h8v1h-8v-1zM16 30c-1.105 0-2-0.895-2-2s0.895-2 2-2 2 0.895 2 2-0.895 2-2 2zM24 24h-16v-20h16v20z"></path>
</symbol>
</defs>
</svg>
